<?xml version="1.0" encoding="utf-8"?>
<!-- Generator: Adobe Illustrator 21.1.0, SVG Export Plug-In . SVG Version: 6.00 Build 0)  -->
<svg version="1.1" id="Layer_1" xmlns="http://www.w3.org/2000/svg" xmlns:xlink="http://www.w3.org/1999/xlink" x="0px" y="0px"
	 viewBox="0 0 43 63" style="enable-background:new 0 0 43 63;" xml:space="preserve">
<style type="text/css">
	.st0{fill-rule:evenodd;clip-rule:evenodd;}
	.st1{fill-rule:evenodd;clip-rule:evenodd;fill:#19331A;}
	.st2{fill-rule:evenodd;clip-rule:evenodd;fill:#EEBD1C;}
	.st3{fill-rule:evenodd;clip-rule:evenodd;fill:#77943C;}
	.st4{fill-rule:evenodd;clip-rule:evenodd;fill:none;stroke:#000000;stroke-width:0.7999;stroke-miterlimit:2.6131;}
</style>
<g>
	<path class="st0" d="M12.5,61.7H8.2v-7.9c0-0.7-0.1-1-0.2-1.2c-0.1-0.1-0.5-0.2-1.1-0.2h-2v9.2H1V49.4h7.8c1.3,0,2.3,0.2,2.8,0.7
		c0.6,0.5,0.8,1.3,0.8,2.4V61.7L12.5,61.7z M28.4,61.7h-4V54c0-0.8-0.1-1.2-0.2-1.4c-0.1-0.1-0.6-0.2-1.5-0.2h-5.6v9.2h-3.9V49.4
		h11.2c1.4,0,2.4,0.3,3,0.8c0.6,0.5,1,1.3,1,2.3V61.7L28.4,61.7z M22.8,61.7V54h-3.9v7.7H22.8L22.8,61.7z M38.7,61.7h-3.4
		c-2.1,0-3.7-0.7-4.8-2.2c-0.9-1.2-1.3-2.5-1.3-3.9c0-1.8,0.7-3.3,2-4.4c1.3-1.1,3-1.7,5.2-1.7h2.4v3.1h-0.9c-1.2,0-2.2,0.2-2.9,0.6
		c-0.9,0.5-1.4,1.3-1.4,2.3c0,1.2,0.4,2,1.3,2.6c0.7,0.4,1.7,0.6,3,0.6h0.9V61.7z"/>
	<path class="st1" d="M22.2,39.2c-11.6-4.8-12.5-12.6-3.9-21.5C14.9,28.8,27.7,32.2,22.2,39.2z"/>
	<path class="st2" d="M24.7,30.1c-8.6-5.4-3.2-9.6-3-17.9C27.4,16.8,20.1,24.6,24.7,30.1z"/>
	<path class="st3" d="M24.6,39.6c7.3-4.8,1.8-12.4,5.3-21.8C20.6,24.7,29,32.6,24.6,39.6z"/>
	<path class="st4" d="M22.5,44.6c-0.2,0-0.4,0-0.6,0l0,0c-6.8,0-12.4-5-12.4-11.1V18.5c0-6.1,5.6-11.1,12.4-11.1l0,0
		c6.8,0,12.4,5,12.4,11.1v14.9c0,4.2-2.6,7.9-6.5,9.8"/>
	<rect x="22.4" y="40.9" class="st0" width="2.5" height="4.2"/>
	<path class="st0" d="M6.3,32.7l-4,1v-0.5l2.6-0.6c0.3-0.1,0.5-0.1,0.8-0.2c-0.4-0.1-0.7-0.1-0.7-0.2l-2.7-0.7V31l2-0.5
		c0.5-0.1,1-0.2,1.4-0.3c-0.2,0-0.5-0.1-0.9-0.2l-2.5-0.6v-0.5l4,1v0.5l-3,0.8c-0.3,0.1-0.4,0.1-0.5,0.1c0.2,0,0.3,0.1,0.5,0.1
		l3,0.8V32.7L6.3,32.7z M5.3,26.8l0.1-0.5c0.3,0.1,0.5,0.2,0.7,0.4c0.2,0.2,0.2,0.5,0.2,0.8c0,0.4-0.1,0.7-0.4,0.9
		c-0.3,0.2-0.6,0.3-1.1,0.3c-0.5,0-0.9-0.1-1.1-0.3c-0.3-0.2-0.4-0.5-0.4-0.9c0-0.4,0.1-0.6,0.4-0.9c0.3-0.2,0.6-0.3,1.1-0.3
		c0,0,0.1,0,0.1,0v2c0.3,0,0.6-0.1,0.7-0.2c0.2-0.1,0.3-0.3,0.3-0.6c0-0.2,0-0.3-0.1-0.4C5.7,27,5.5,26.9,5.3,26.8L5.3,26.8z
		 M4.6,28.3v-1.5c-0.2,0-0.4,0.1-0.5,0.2c-0.2,0.1-0.3,0.3-0.3,0.6c0,0.2,0.1,0.4,0.2,0.5C4.1,28.2,4.3,28.3,4.6,28.3L4.6,28.3z
		 M6.3,24.2H3.8v0.4H3.4v-0.4H3.1c-0.2,0-0.3,0-0.4,0c-0.1,0-0.2-0.1-0.3-0.2c-0.1-0.1-0.1-0.3-0.1-0.5c0-0.1,0-0.3,0-0.4l0.4,0.1
		c0,0.1,0,0.2,0,0.3c0,0.1,0,0.2,0.1,0.3c0.1,0.1,0.2,0.1,0.4,0.1h0.3v-0.5h0.4v0.5h2.5V24.2L6.3,24.2z M2.9,23H2.3v-0.5h0.6V23
		L2.9,23z M6.3,23H3.4v-0.5h2.9V23L6.3,23z M6.3,21.8h-4v-0.5h4V21.8L6.3,21.8z M6.3,20.7h-4v-0.5h4V20.7L6.3,20.7z M5,18l0-0.5
		c0.2,0,0.4,0,0.5-0.1c0.1-0.1,0.3-0.2,0.4-0.3C5.9,17,6,16.8,6,16.6c0-0.2,0-0.3,0-0.5c0-0.1-0.1-0.3-0.2-0.3
		c-0.1-0.1-0.2-0.1-0.3-0.1c-0.1,0-0.2,0-0.3,0.1C5,15.8,4.9,15.9,4.9,16c-0.1,0.1-0.1,0.3-0.3,0.6c-0.1,0.3-0.2,0.5-0.3,0.7
		c-0.1,0.2-0.3,0.3-0.4,0.3c-0.2,0.1-0.3,0.1-0.5,0.1c-0.2,0-0.4-0.1-0.5-0.2c-0.2-0.1-0.3-0.3-0.3-0.5c-0.1-0.2-0.1-0.4,0-0.7
		c0-0.3,0.1-0.5,0.2-0.7c0.1-0.2,0.3-0.3,0.5-0.4c0.2-0.1,0.4-0.1,0.6-0.1l0,0.5c-0.3,0-0.4,0.1-0.6,0.2c-0.1,0.1-0.2,0.3-0.3,0.6
		c0,0.3,0,0.5,0.1,0.7c0.1,0.1,0.2,0.2,0.4,0.2c0.1,0,0.3,0,0.4-0.1c0.1-0.1,0.2-0.3,0.4-0.7c0.1-0.4,0.3-0.6,0.4-0.8
		c0.1-0.2,0.3-0.3,0.5-0.4c0.2-0.1,0.4-0.1,0.6-0.1c0.2,0,0.4,0.1,0.6,0.2c0.2,0.1,0.3,0.3,0.4,0.5c0.1,0.2,0.1,0.5,0.1,0.7
		c0,0.3-0.1,0.6-0.3,0.8c-0.1,0.2-0.3,0.4-0.5,0.5C5.5,18,5.2,18.1,5,18L5,18z M7.2,13c0.1,0.2,0.1,0.4,0.1,0.6c0,0.2,0,0.3-0.1,0.5
		c-0.1,0.3-0.3,0.5-0.5,0.6c-0.2,0.1-0.4,0.1-0.6,0c-0.1,0-0.2-0.1-0.3-0.2c-0.1-0.1-0.1-0.2-0.2-0.3c0-0.1,0-0.2,0-0.4
		c0-0.1,0-0.2,0.1-0.4c0.1-0.4,0.1-0.6,0.1-0.8c-0.1,0-0.1,0-0.1,0c-0.2-0.1-0.3-0.1-0.4,0c-0.1,0.1-0.3,0.2-0.3,0.4
		c-0.1,0.2-0.1,0.4-0.1,0.5c0,0.1,0.1,0.2,0.3,0.3l-0.2,0.4c-0.2-0.1-0.3-0.2-0.4-0.3c-0.1-0.1-0.1-0.3-0.1-0.5c0-0.2,0-0.4,0.1-0.6
		c0.1-0.2,0.2-0.4,0.3-0.5C4.9,12.1,5,12.1,5.1,12c0.1,0,0.2,0,0.4,0c0.1,0,0.2,0.1,0.4,0.1l0.6,0.2c0.4,0.1,0.7,0.2,0.8,0.2
		c0.1,0,0.2,0,0.4,0L7.5,13C7.4,13,7.3,13,7.2,13L7.2,13z M6.1,12.7c0,0.2,0,0.4-0.1,0.7C6,13.6,6,13.7,6,13.8C6,13.9,6,14,6.1,14
		c0,0.1,0.1,0.1,0.2,0.1c0.1,0,0.2,0,0.4,0c0.1-0.1,0.2-0.2,0.3-0.3c0.1-0.2,0.1-0.3,0.1-0.5c0-0.2-0.1-0.3-0.2-0.4
		c-0.1-0.1-0.2-0.2-0.4-0.2L6.1,12.7L6.1,12.7z M8.1,12l0.3-0.4l-2.1-1.2l0.3-0.4L6.2,9.8l-0.3,0.4l-0.2-0.1C5.5,10,5.4,9.9,5.4,9.8
		c0-0.1,0-0.2,0.1-0.3c0-0.1,0.1-0.1,0.2-0.2L5.4,9.1C5.2,9.2,5.1,9.3,5.1,9.4C5,9.6,4.9,9.7,4.9,9.8c0,0.1,0,0.2,0.1,0.3
		c0.1,0.1,0.2,0.2,0.3,0.3l0.3,0.1l-0.2,0.3l0.3,0.2L6,10.8L8.1,12L8.1,12z M9.3,8.9l0.4-0.3C9.8,8.8,9.9,9,9.9,9.3
		c0,0.2-0.1,0.5-0.3,0.7c-0.3,0.3-0.6,0.5-0.9,0.5c-0.4,0-0.7-0.1-1.1-0.4C7.2,9.8,7,9.5,6.9,9.2C6.9,8.9,7,8.6,7.2,8.3
		C7.4,8,7.7,7.8,8.1,7.8c0.4,0,0.7,0.1,1.1,0.4c0,0,0.1,0,0.1,0.1L7.9,9.8C8.2,10,8.4,10.1,8.7,10c0.2,0,0.4-0.1,0.6-0.3
		c0.1-0.1,0.2-0.3,0.2-0.4C9.4,9.2,9.4,9,9.3,8.9L9.3,8.9z M7.6,9.6C7.5,9.4,7.4,9.2,7.3,9c0-0.2,0-0.4,0.2-0.5
		c0.2-0.2,0.4-0.3,0.6-0.3c0.2,0,0.3,0.1,0.5,0.2L7.6,9.6L7.6,9.6z M11.2,7.7c-0.1,0.1-0.1,0.1-0.1,0.1C11,7.9,11,7.9,11,7.9
		c0,0-0.1,0-0.1,0c0,0-0.1-0.1-0.2-0.2L9.5,6.6l0.4-0.3L9.6,6L9.3,6.3L8.6,5.6L8.4,6.1l0.5,0.5L8.6,6.8l0.3,0.3l0.3-0.2L10.3,8
		c0.2,0.2,0.3,0.3,0.4,0.4c0.1,0,0.2,0,0.3,0c0.1,0,0.2-0.1,0.4-0.2c0.1-0.1,0.2-0.2,0.2-0.3L11.2,7.7L11.2,7.7z M12.5,8.5l-0.3-0.3
		c0.1,0,0.2-0.1,0.3-0.1C12.5,8,12.6,8,12.6,7.9c0-0.1,0-0.1,0-0.2c0-0.1,0-0.2-0.1-0.4c0,0,0-0.1,0-0.1L10,5.6l0.4-0.3l1.4,0.9
		c0.2,0.1,0.4,0.3,0.6,0.4c-0.1-0.2-0.2-0.4-0.2-0.6l-0.5-1.6l0.4-0.3L12.9,7c0.1,0.3,0.1,0.5,0.1,0.6c0,0.2,0,0.3,0,0.4
		c0,0.1-0.1,0.2-0.3,0.3C12.7,8.4,12.6,8.5,12.5,8.5L12.5,8.5z M17.5,4.5c-0.1,0.2-0.2,0.4-0.4,0.5c-0.2,0.1-0.3,0.2-0.5,0.3
		c-0.4,0.1-0.7,0.1-1-0.1c-0.3-0.1-0.4-0.3-0.5-0.6C15,4.5,15,4.2,15.1,4c0.1-0.2,0.3-0.4,0.5-0.7c-0.2-0.1-0.4-0.2-0.5-0.3
		c-0.1-0.1-0.2-0.2-0.2-0.3c-0.1-0.2,0-0.4,0.1-0.6c0.1-0.2,0.3-0.4,0.6-0.4c0.3-0.1,0.5-0.1,0.7,0c0.2,0.1,0.4,0.2,0.4,0.5
		c0.1,0.3,0,0.7-0.4,1.1l1,0.6c0-0.2,0-0.3,0-0.5l0.5,0c0,0.3,0,0.6-0.1,0.9c0.2,0.2,0.5,0.3,0.8,0.4l-0.2,0.4
		C18,4.8,17.8,4.7,17.5,4.5L17.5,4.5z M15.9,3c0.2-0.2,0.3-0.3,0.3-0.4c0-0.1,0-0.2,0-0.3c0-0.1-0.1-0.2-0.2-0.3
		C15.9,2,15.8,2,15.6,2c-0.1,0-0.2,0.1-0.3,0.2c-0.1,0.1-0.1,0.2,0,0.3c0,0.1,0.1,0.1,0.1,0.2c0.1,0.1,0.1,0.1,0.2,0.1L15.9,3
		L15.9,3z M17.1,4.3l-1.2-0.7c-0.2,0.2-0.3,0.4-0.4,0.5c0,0.1,0,0.3,0,0.4c0,0.1,0.2,0.3,0.3,0.4C16,5,16.2,5,16.5,5
		c0.1,0,0.3-0.1,0.4-0.3C17,4.6,17,4.4,17.1,4.3L17.1,4.3z M20.6,4.4l0.1-3.7l1.8,0c0.4,0,0.6,0,0.8,0.1c0.2,0.1,0.3,0.2,0.4,0.4
		c0.1,0.2,0.2,0.4,0.2,0.6c0,0.3-0.1,0.5-0.3,0.7c-0.2,0.2-0.5,0.3-0.8,0.3c0.1,0.1,0.2,0.1,0.3,0.2c0.2,0.1,0.3,0.3,0.4,0.5l0.7,1
		l-0.7,0l-0.5-0.8c-0.1-0.2-0.3-0.4-0.4-0.5c-0.1-0.1-0.2-0.2-0.3-0.2c-0.1,0-0.2-0.1-0.2-0.1c-0.1,0-0.2,0-0.3,0l-0.6,0l0,1.6
		L20.6,4.4L20.6,4.4z M21.2,2.3l1.1,0c0.2,0,0.4,0,0.6-0.1c0.1,0,0.2-0.1,0.3-0.2c0.1-0.1,0.1-0.2,0.1-0.3c0-0.2-0.1-0.3-0.2-0.4
		c-0.1-0.1-0.3-0.2-0.6-0.2l-1.3,0L21.2,2.3L21.2,2.3z M26.6,4.1l0.5,0.2c-0.1,0.3-0.3,0.4-0.6,0.5C26.3,4.9,26,5,25.7,4.9
		c-0.4-0.1-0.7-0.3-0.9-0.5c-0.2-0.3-0.2-0.6-0.1-1.1c0.1-0.4,0.3-0.8,0.6-0.9c0.3-0.2,0.6-0.3,1-0.2c0.4,0.1,0.7,0.3,0.8,0.5
		c0.2,0.3,0.2,0.6,0.1,1.1c0,0,0,0.1,0,0.1l-2.1-0.4c0,0.3,0,0.5,0.1,0.7c0.1,0.2,0.3,0.3,0.5,0.3c0.2,0,0.3,0,0.5,0
		C26.4,4.4,26.5,4.3,26.6,4.1L26.6,4.1z M25.3,3.1l1.6,0.3c0-0.2,0-0.4-0.1-0.5c-0.1-0.2-0.3-0.3-0.5-0.4c-0.2,0-0.4,0-0.6,0.1
		C25.4,2.7,25.3,2.9,25.3,3.1L25.3,3.1z M27.6,5.4l0.9-2.2l-0.4-0.1l0.1-0.3l0.4,0.1l0.1-0.3c0.1-0.2,0.1-0.3,0.2-0.4
		c0.1-0.1,0.2-0.2,0.3-0.2c0.1,0,0.3,0,0.5,0.1c0.1,0,0.3,0.1,0.4,0.2L30,2.7c-0.1,0-0.2-0.1-0.3-0.1c-0.1,0-0.2-0.1-0.3,0
		c-0.1,0-0.2,0.1-0.2,0.3l-0.1,0.2l0.5,0.2l-0.1,0.3l-0.5-0.2L28,5.6L27.6,5.4L27.6,5.4z M30.4,3.1l0.2-0.5l0.4,0.2l-0.2,0.5
		L30.4,3.1L30.4,3.1z M28.9,6l0.4,0.2l1.3-2.4l-0.4-0.2L28.9,6L28.9,6z M30,6.4l0.4,0.2l2.1-3.1l-0.4-0.2L30,6.4L30,6.4z M31,7.1
		l2.4-2.9l0.4,0.3l-2.4,2.9L31,7.1L31,7.1z M33.2,8.7l0.3,0.4L35,8l1.3,1.5l-1.4,1.1l0.3,0.4l3.1-2.3l-0.3-0.4l-1.3,0.9l-1.3-1.5
		l1.3-0.9l-0.3-0.4L33.2,8.7L33.2,8.7z M36.7,13.1c-0.2-0.1-0.4-0.2-0.5-0.3c-0.1-0.1-0.2-0.3-0.3-0.4c-0.1-0.3-0.2-0.5-0.1-0.7
		c0.1-0.2,0.2-0.4,0.4-0.4c0.1-0.1,0.3-0.1,0.4-0.1c0.1,0,0.3,0,0.4,0.1c0.1,0.1,0.2,0.1,0.3,0.2c0.1,0.1,0.1,0.2,0.2,0.3
		c0.2,0.3,0.4,0.5,0.5,0.7c0.1,0,0.1,0,0.1,0c0.2-0.1,0.3-0.2,0.3-0.3c0-0.1,0-0.3-0.1-0.5c-0.1-0.2-0.2-0.3-0.3-0.4
		c-0.1-0.1-0.3-0.1-0.5,0l-0.1-0.4c0.2,0,0.4,0,0.5,0c0.2,0,0.3,0.1,0.4,0.2c0.1,0.1,0.3,0.3,0.4,0.5c0.1,0.2,0.2,0.4,0.2,0.5
		c0,0.2,0,0.3-0.1,0.4c0,0.1-0.1,0.2-0.2,0.3c-0.1,0-0.2,0.1-0.4,0.2l-0.6,0.3c-0.4,0.2-0.7,0.3-0.8,0.4c-0.1,0.1-0.2,0.1-0.3,0.2
		l-0.2-0.4C36.5,13.2,36.6,13.2,36.7,13.1L36.7,13.1z M37.7,12.6c-0.1-0.1-0.3-0.3-0.5-0.6c-0.1-0.2-0.2-0.3-0.3-0.3
		c-0.1-0.1-0.1-0.1-0.2-0.1c-0.1,0-0.2,0-0.2,0c-0.1,0.1-0.2,0.1-0.2,0.3c0,0.1,0,0.3,0.1,0.4c0.1,0.2,0.2,0.3,0.3,0.4
		c0.1,0.1,0.3,0.1,0.4,0.1c0.1,0,0.3,0,0.5-0.1L37.7,12.6L37.7,12.6z M35.8,14.5l0.1,0.4l1.4-0.3c-0.1,0.1-0.1,0.2-0.2,0.3
		c0,0.1,0,0.3,0,0.4c0.1,0.2,0.2,0.4,0.3,0.5c0.2,0.2,0.4,0.3,0.6,0.3c0.3,0,0.5,0,0.8,0c0.3-0.1,0.5-0.2,0.7-0.3
		c0.2-0.1,0.3-0.3,0.4-0.5c0.1-0.2,0.1-0.4,0-0.6c0-0.2-0.1-0.3-0.2-0.4c-0.1-0.1-0.2-0.2-0.4-0.2l0.4-0.1l-0.1-0.4L35.8,14.5
		L35.8,14.5z M38.3,14.4c0.4-0.1,0.6-0.1,0.9,0c0.2,0.1,0.4,0.2,0.4,0.4c0.1,0.2,0,0.4-0.1,0.5c-0.1,0.2-0.4,0.3-0.7,0.4
		c-0.4,0.1-0.7,0.1-0.9,0c-0.2-0.1-0.3-0.2-0.4-0.4c-0.1-0.2,0-0.4,0.1-0.5C37.7,14.6,38,14.4,38.3,14.4L38.3,14.4z M36.4,17.1
		l4-0.2l0,0.4l-0.4,0c0.2,0.1,0.3,0.2,0.3,0.3c0.1,0.1,0.1,0.3,0.1,0.4c0,0.2,0,0.4-0.2,0.6c-0.1,0.2-0.3,0.3-0.5,0.4
		c-0.2,0.1-0.5,0.2-0.7,0.2c-0.3,0-0.6,0-0.8-0.1c-0.2-0.1-0.4-0.2-0.6-0.4c-0.1-0.2-0.2-0.4-0.2-0.6c0-0.2,0-0.3,0.1-0.4
		c0.1-0.1,0.1-0.2,0.2-0.3l-1.4,0.1L36.4,17.1L36.4,17.1z M38.9,17.4c-0.4,0-0.6,0.1-0.8,0.2c-0.2,0.1-0.2,0.3-0.2,0.5
		c0,0.2,0.1,0.4,0.3,0.5c0.2,0.1,0.5,0.2,0.9,0.2c0.4,0,0.6-0.1,0.8-0.2c0.2-0.1,0.3-0.3,0.2-0.5c0-0.2-0.1-0.4-0.3-0.5
		C39.6,17.4,39.3,17.4,38.9,17.4L38.9,17.4z M40.9,19.9h0.6v0.5h-0.6V19.9L40.9,19.9z M37.5,19.9h2.9v0.5h-2.9V19.9L37.5,19.9z
		 M37.5,21.1h2.9v0.4H40c0.3,0.2,0.5,0.5,0.5,0.8c0,0.2,0,0.3-0.1,0.4c-0.1,0.1-0.1,0.2-0.2,0.3c-0.1,0.1-0.2,0.1-0.4,0.1
		c-0.1,0-0.2,0-0.5,0h-1.8v-0.5h1.7c0.2,0,0.3,0,0.4-0.1c0.1,0,0.2-0.1,0.2-0.2c0.1-0.1,0.1-0.2,0.1-0.3c0-0.2-0.1-0.4-0.2-0.5
		c-0.1-0.1-0.4-0.2-0.7-0.2h-1.6V21.1L37.5,21.1z M38.5,25.7l-0.1,0.5c-0.3-0.1-0.5-0.2-0.7-0.4c-0.2-0.2-0.2-0.5-0.2-0.8
		c0-0.4,0.1-0.7,0.4-0.9c0.3-0.2,0.6-0.3,1.1-0.3c0.5,0,0.9,0.1,1.1,0.3c0.3,0.2,0.4,0.5,0.4,0.9c0,0.4-0.1,0.6-0.4,0.9
		c-0.3,0.2-0.6,0.3-1.1,0.3c0,0-0.1,0-0.1,0v-2c-0.3,0-0.6,0.1-0.7,0.2c-0.2,0.1-0.3,0.3-0.3,0.6c0,0.2,0,0.3,0.1,0.4
		C38.1,25.5,38.2,25.6,38.5,25.7L38.5,25.7z M39.2,24.2v1.5c0.2,0,0.4-0.1,0.5-0.2c0.2-0.1,0.3-0.3,0.3-0.6c0-0.2-0.1-0.4-0.2-0.5
		C39.7,24.3,39.5,24.2,39.2,24.2L39.2,24.2z M38.4,26.6l0.1,0.4c-0.2,0-0.3,0.1-0.4,0.2c-0.1,0.1-0.2,0.3-0.2,0.5
		c0,0.2,0,0.4,0.1,0.5c0.1,0.1,0.2,0.2,0.3,0.2c0.1,0,0.2,0,0.3-0.1c0-0.1,0.1-0.2,0.2-0.5c0.1-0.3,0.2-0.6,0.2-0.7
		c0.1-0.1,0.2-0.2,0.3-0.3c0.1-0.1,0.2-0.1,0.4-0.1c0.1,0,0.2,0,0.4,0.1c0.1,0.1,0.2,0.1,0.3,0.2c0.1,0.1,0.1,0.2,0.1,0.3
		c0,0.1,0.1,0.3,0.1,0.4c0,0.2,0,0.4-0.1,0.5c-0.1,0.2-0.2,0.3-0.3,0.3c-0.1,0.1-0.3,0.1-0.4,0.2l-0.1-0.4c0.1,0,0.3-0.1,0.3-0.2
		s0.1-0.2,0.1-0.4c0-0.2,0-0.4-0.1-0.4c-0.1-0.1-0.2-0.1-0.3-0.1c-0.1,0-0.1,0-0.2,0.1c-0.1,0-0.1,0.1-0.1,0.2c0,0-0.1,0.2-0.1,0.4
		c-0.1,0.3-0.2,0.5-0.2,0.7c-0.1,0.1-0.1,0.2-0.3,0.3c-0.1,0.1-0.2,0.1-0.4,0.1c-0.2,0-0.3,0-0.5-0.1c-0.1-0.1-0.3-0.2-0.3-0.4
		c-0.1-0.2-0.1-0.4-0.1-0.6c0-0.3,0.1-0.6,0.2-0.8C37.8,26.7,38.1,26.6,38.4,26.6L38.4,26.6z M38.4,29.1l0.1,0.4
		c-0.2,0-0.3,0.1-0.4,0.2c-0.1,0.1-0.2,0.3-0.2,0.5c0,0.2,0,0.4,0.1,0.5c0.1,0.1,0.2,0.2,0.3,0.2c0.1,0,0.2,0,0.3-0.1
		c0-0.1,0.1-0.2,0.2-0.5c0.1-0.3,0.2-0.6,0.2-0.7c0.1-0.1,0.2-0.2,0.3-0.3c0.1-0.1,0.2-0.1,0.4-0.1c0.1,0,0.2,0,0.4,0.1
		c0.1,0.1,0.2,0.1,0.3,0.2c0.1,0.1,0.1,0.2,0.1,0.3c0,0.1,0.1,0.3,0.1,0.4c0,0.2,0,0.4-0.1,0.5c-0.1,0.2-0.2,0.3-0.3,0.3
		c-0.1,0.1-0.3,0.1-0.4,0.2l-0.1-0.4c0.1,0,0.3-0.1,0.3-0.2s0.1-0.2,0.1-0.4c0-0.2,0-0.4-0.1-0.4c-0.1-0.1-0.2-0.1-0.3-0.1
		c-0.1,0-0.1,0-0.2,0.1c-0.1,0-0.1,0.1-0.1,0.2c0,0-0.1,0.2-0.1,0.4c-0.1,0.3-0.2,0.5-0.2,0.7c-0.1,0.1-0.1,0.2-0.3,0.3
		c-0.1,0.1-0.2,0.1-0.4,0.1c-0.2,0-0.3,0-0.5-0.1c-0.1-0.1-0.3-0.2-0.3-0.4c-0.1-0.2-0.1-0.4-0.1-0.6c0-0.3,0.1-0.6,0.2-0.8
		C37.8,29.3,38.1,29.2,38.4,29.1z"/>
</g>
</svg>
